<svg xmlns="http://www.w3.org/2000/svg" width="233.637" height="32.246" viewBox="0 0 233.637 32.246"><defs><style>.a{fill:#ff3442;stroke:rgba(0,0,0,0);stroke-miterlimit:10;}</style></defs><path class="a" d="M22899.707,18228.242a16.027,16.027,0,0,1-7.879-2,14.972,14.972,0,0,1-5.7-5.582,16.445,16.445,0,0,1,0-16.1,15.039,15.039,0,0,1,5.7-5.555,16.478,16.478,0,0,1,15.766,0,14.723,14.723,0,0,1,5.648,5.555,16.647,16.647,0,0,1-.02,16.1,14.93,14.93,0,0,1-5.648,5.582A15.886,15.886,0,0,1,22899.707,18228.242Zm-.012-24.2a.865.865,0,0,0-.809.535l-1.891,4.426-4.785.426a.912.912,0,0,0-.762.613.868.868,0,0,0,.262.934l3.609,3.168-1.055,4.7a.875.875,0,0,0,.34.91.846.846,0,0,0,.512.168.949.949,0,0,0,.453-.121l4.125-2.473,4.133,2.473a.9.9,0,0,0,.441.117.917.917,0,0,0,.527-.164.881.881,0,0,0,.34-.91l-1.07-4.7,3.621-3.168a.876.876,0,0,0,.25-.934.859.859,0,0,0-.75-.613l-4.785-.426-1.891-4.426A.883.883,0,0,0,22899.7,18204.047Zm86.527,24.109a15.989,15.989,0,0,1-7.934-1.973,14.2,14.2,0,0,1-5.457-5.5,17.632,17.632,0,0,1,0-16.1,14.05,14.05,0,0,1,5.457-5.512,15.9,15.9,0,0,1,7.934-1.98,15.219,15.219,0,0,1,9.293,2.871,13.825,13.825,0,0,1,5.18,7.82h-8.176a6.63,6.63,0,0,0-2.586-2.914,7.225,7.225,0,0,0-3.8-1,7.1,7.1,0,0,0-5.555,2.391,10.65,10.65,0,0,0,0,12.777,7.09,7.09,0,0,0,5.555,2.391,7.259,7.259,0,0,0,3.8-1,6.514,6.514,0,0,0,2.586-2.914h8.176a13.706,13.706,0,0,1-5.18,7.8A15.265,15.265,0,0,1,22986.223,18228.156Zm24.813-.219h0l-7.777,0,11.031-30.492h8.6l11.047,30.488-7.867,0-1.824-5.383h-11.383l-1.824,5.383Zm7.516-22.277-3.738,11.148h7.52Zm-78.82,22.277h0l-6,0-6.867-18.328v18.328h-7.426v-30.492h8.781l8.551,21.113,8.484-21.113h8.73v30.488l-7.434,0v-18.285l-6.82,18.285Zm-77.293,0h0l-7.434,0v-30.492h7.438v13.383l10.156-13.383h8.734l-11.809,14.941,12.246,15.547-9.082,0-10.246-13.469v13.473Zm209.379,0h-7.422v-30.492h12.035a13.743,13.743,0,0,1,6.16,1.254,8.6,8.6,0,0,1,3.781,3.473,10.216,10.216,0,0,1,1.266,5.09,9.766,9.766,0,0,1-1.219,4.84,8.845,8.845,0,0,1-3.734,3.539,13.02,13.02,0,0,1-6.254,1.348h-4.613v10.949Zm0-24.5v7.656h4.043a4.513,4.513,0,0,0,3.18-1,4.37,4.37,0,0,0,0-5.648,4.432,4.432,0,0,0-3.18-1h-4.043Zm-27.109,24.5h-7.426v-30.492h12.027a13.744,13.744,0,0,1,6.168,1.254,8.609,8.609,0,0,1,3.785,3.473,10.182,10.182,0,0,1,1.262,5.09,9.813,9.813,0,0,1-1.223,4.84,8.767,8.767,0,0,1-3.73,3.539,13.259,13.259,0,0,1-6.262,1.348h-4.6v10.949Zm0-24.5v7.656h4.043a4.413,4.413,0,0,0,3.164-1,4.333,4.333,0,0,0,0-5.648,4.375,4.375,0,0,0-3.164-1h-4.043Zm-77.957,24.5h-7.422v-30.492h7.422v30.492Z" transform="translate(-22854.5 -18196.496)"/></svg>